{
    "asset": {
        "copyright": "2024 (c) Adobe Inc.",
        "generator": "Adobe Substance 3D Stager - 522bab3571c29d3cf2b1b071f74e2d9861da2e41",
        "version": "2.0",
        "extensions": {
            "KHR_xmp_json_ld": {
                "packet": 0
            }
        }
    },
    "accessors": [
        {
            "bufferView": 0,
            "componentType": 5126,
            "count": 262535,
            "type": "VEC3",
            "max": [
                0.49999868869781496,
                0.21541769802570344,
                0.4999586045742035
            ],
            "min": [
                -0.5,
                -0.21539415419101716,
                -0.49997904896736147
            ]
        },
        {
            "bufferView": 1,
            "componentType": 5126,
            "count": 262535,
            "type": "VEC3"
        },
        {
            "bufferView": 2,
            "componentType": 5126,
            "count": 262535,
            "type": "VEC2"
        },
        {
            "bufferView": 3,
            "componentType": 5125,
            "count": 1499988,
            "type": "SCALAR",
            "max": [
                262534.0
            ],
            "min": [
                0.0
            ]
        }
    ],
    "bufferViews": [
        {
            "buffer": 0,
            "byteOffset": 0,
            "byteLength": 3150420,
            "target": 34962
        },
        {
            "buffer": 0,
            "byteOffset": 3150420,
            "byteLength": 3150420,
            "target": 34962
        },
        {
            "buffer": 0,
            "byteOffset": 6300840,
            "byteLength": 2100280,
            "target": 34962
        },
        {
            "buffer": 0,
            "byteOffset": 8401120,
            "byteLength": 5999952,
            "target": 34963
        }
    ],
    "buffers": [
        {
            "byteLength": 14401072,
            "uri": "himalayas_binary.bin"
        }
    ],
    "images": [
        {
            "name": "base_color",
            "uri": "himalayas_images/base_color.jpg",
            "mimeType": "image/jpeg"
        },
        {
            "name": "sampler_sampler",
            "uri": "himalayas_images/sampler_sampler.png",
            "mimeType": "image/png"
        },
        {
            "name": "normal",
            "uri": "himalayas_images/normal.png",
            "mimeType": "image/png"
        }
    ],
    "materials": [
        {
            "pbrMetallicRoughness": {
                "baseColorTexture": {
                    "index": 0
                },
                "metallicRoughnessTexture": {
                    "index": 1
                }
            },
            "normalTexture": {
                "index": 2
            },
            "name": "tripo_material_f7e2aedc-5da4-40f9-b954-8027fce111c4",
            "doubleSided": true
        }
    ],
    "meshes": [
        {
            "name": "tripo_node_f7e2aedc-5da4-40f9-b954-8027fce111c4_n3d",
            "primitives": [
                {
                    "attributes": {
                        "POSITION": 0,
                        "NORMAL": 1,
                        "TEXCOORD_0": 2
                    },
                    "indices": 3,
                    "material": 0
                }
            ]
        }
    ],
    "nodes": [
        {
            "name": "working_cam_n3d"
        },
        {
            "translation": [
                0.0,
                0.21539415419101716,
                0.0
            ],
            "mesh": 0,
            "name": "tripo_node_f7e2aedc-5da4-40f9-b954-8027fce111c4_n3d"
        }
    ],
    "samplers": [
        {}
    ],
    "scenes": [
        {
            "nodes": [
                1
            ],
            "name": "scene"
        }
    ],
    "textures": [
        {
            "name": "tmp_image_pie_d26b_3f15_86e1",
            "sampler": 0,
            "source": 0
        },
        {
            "name": "sampler_sampler",
            "sampler": 0,
            "source": 1
        },
        {
            "name": "tmp_image_pie_913f_bf2e_037d",
            "sampler": 0,
            "source": 2
        }
    ],
    "scene": 0,
    "extensions": {
        "KHR_xmp_json_ld": {
            "packets": [
                {
                    "@context": {
                        "dc": "http://purl.org/dc/elements/1.1/"
                    },
                    "dc:date": "2025-03-20T18:57:32.654Z",
                    "dc:title": "himalayas.dn",
                    "xmp:CreatorTool": "Adobe Substance 3D Stager"
                }
            ]
        }
    },
    "extensionsUsed": [
        "KHR_xmp_json_ld"
    ]
}